<svg width="147" height="24" viewBox="0 0 147 24" fill="none" xmlns="http://www.w3.org/2000/svg">
<path d="M7.632 1.728C9.744 1.728 11.296 2.216 12.288 3.192C13.296 4.168 13.8 5.448 13.8 7.032C13.8 8.12 13.544 9.064 13.032 9.864C12.536 10.664 11.856 11.288 10.992 11.736C10.144 12.168 9.176 12.384 8.088 12.384C7.704 12.384 7.296 12.352 6.864 12.288C6.432 12.208 5.984 12.088 5.52 11.928L5.736 11.256C5.864 11.608 5.968 12.048 6.048 12.576C6.144 13.088 6.216 13.624 6.264 14.184C6.328 14.728 6.36 15.232 6.36 15.696C6.36 16.816 6.088 17.672 5.544 18.264C5.016 18.856 4.216 19.152 3.144 19.152C2.328 19.152 1.688 18.96 1.224 18.576C0.776 18.176 0.456 17.528 0.264 16.632C0.088 15.736 0 14.544 0 13.056C0 11.04 0.12 9.32 0.36 7.896C0.616 6.472 0.976 5.336 1.44 4.488C1.904 3.64 2.664 2.968 3.72 2.472C4.776 1.976 6.08 1.728 7.632 1.728ZM6.96 8.928C7.744 8.928 8.392 8.728 8.904 8.328C9.432 7.928 9.696 7.384 9.696 6.696C9.696 6.248 9.552 5.88 9.264 5.592C8.992 5.288 8.512 5.136 7.824 5.136C7.296 5.136 6.824 5.248 6.408 5.472C6.008 5.68 5.688 5.96 5.448 6.312C5.224 6.664 5.112 7.04 5.112 7.44C5.112 7.872 5.264 8.232 5.568 8.52C5.888 8.792 6.352 8.928 6.96 8.928Z" fill="#0192F5"/>
<path d="M26.4564 18.84C25.8004 18.84 25.2964 18.696 24.9444 18.408C24.5924 18.104 24.3524 17.72 24.2244 17.256C24.1124 16.776 24.0564 16.272 24.0564 15.744L24.1764 15.648C23.9364 16.336 23.5684 16.928 23.0724 17.424C22.5924 17.92 22.0404 18.304 21.4164 18.576C20.8084 18.832 20.1924 18.96 19.5684 18.96C18.6244 18.96 17.8324 18.76 17.1924 18.36C16.5524 17.944 16.0324 17.288 15.6324 16.392C15.2964 15.64 15.0244 14.632 14.8164 13.368C14.6244 12.104 14.5284 10.792 14.5284 9.432C14.5284 8.808 14.5524 8.24 14.6004 7.728C14.6644 7.2 14.7524 6.76 14.8644 6.408C15.0564 5.8 15.3764 5.352 15.8244 5.064C16.2884 4.776 16.8404 4.632 17.4804 4.632C18.2324 4.632 18.8244 4.88 19.2564 5.376C19.7044 5.856 19.9684 6.528 20.0484 7.392C20.0964 7.872 20.1364 8.424 20.1684 9.048C20.2004 9.656 20.2324 10.256 20.2644 10.848C20.2964 11.44 20.3284 11.952 20.3604 12.384C20.4244 12.976 20.5684 13.416 20.7924 13.704C21.0164 13.976 21.3284 14.112 21.7284 14.112C22.1924 14.112 22.5444 13.888 22.7844 13.44C23.0404 12.976 23.1684 12.344 23.1684 11.544C23.1684 11.112 23.1444 10.624 23.0964 10.08C23.0644 9.536 23.0324 9.008 23.0004 8.496C22.9684 7.968 22.9524 7.536 22.9524 7.2C22.9524 6.112 23.1604 5.336 23.5764 4.872C24.0084 4.408 24.6084 4.176 25.3764 4.176C26.0004 4.176 26.5364 4.312 26.9844 4.584C27.4324 4.84 27.7604 5.216 27.9684 5.712C28.1924 6.176 28.3844 6.808 28.5444 7.608C28.7044 8.408 28.8324 9.312 28.9284 10.32C29.0244 11.312 29.0724 12.368 29.0724 13.488C29.0724 15.28 28.8804 16.624 28.4964 17.52C28.1124 18.4 27.4324 18.84 26.4564 18.84Z" fill="#0192F5"/>
<path d="M32.6601 4.104C33.3161 4.104 33.8441 4.376 34.2441 4.92C34.6601 5.448 34.9641 6.288 35.1561 7.44L34.6521 7.704C34.9401 6.584 35.4761 5.728 36.2601 5.136C37.0441 4.544 37.9721 4.248 39.0441 4.248C40.0681 4.248 40.9721 4.504 41.7561 5.016C42.5401 5.528 43.1561 6.304 43.6041 7.344C44.0681 8.368 44.3001 9.656 44.3001 11.208C44.3001 13.72 43.8281 15.576 42.8841 16.776C41.9561 17.96 40.7001 18.552 39.1161 18.552C38.0441 18.552 37.1961 18.312 36.5721 17.832C35.9641 17.352 35.5401 16.768 35.3001 16.08L35.5881 15.936C35.7161 16.832 35.8201 17.72 35.9001 18.6C35.9961 19.464 36.0441 20.224 36.0441 20.88C36.0441 21.696 35.8361 22.384 35.4201 22.944C35.0041 23.52 34.3481 23.808 33.4521 23.808C32.6201 23.808 31.9801 23.536 31.5321 22.992C31.1001 22.464 30.8041 21.736 30.6441 20.808C30.5481 20.152 30.4521 19.32 30.3561 18.312C30.2601 17.288 30.1801 16.184 30.1161 15C30.0681 13.816 30.0441 12.648 30.0441 11.496C30.0441 10.36 30.0841 9.296 30.1641 8.304C30.2601 7.296 30.3721 6.48 30.5001 5.856C30.6441 5.264 30.9001 4.824 31.2681 4.536C31.6521 4.248 32.1161 4.104 32.6601 4.104ZM37.1721 8.28C36.5801 8.28 36.1001 8.576 35.7321 9.168C35.3801 9.76 35.2041 10.528 35.2041 11.472C35.2041 12.448 35.3801 13.176 35.7321 13.656C36.0841 14.136 36.5481 14.376 37.1241 14.376C37.8281 14.376 38.3241 14.104 38.6121 13.56C38.9161 13.016 39.0681 12.312 39.0681 11.448C39.0681 10.36 38.8761 9.56 38.4921 9.048C38.1241 8.536 37.6841 8.28 37.1721 8.28Z" fill="#0192F5"/>
<path d="M47.7538 4.104C48.4098 4.104 48.9378 4.376 49.3378 4.92C49.7538 5.448 50.0578 6.288 50.2498 7.44L49.7458 7.704C50.0338 6.584 50.5698 5.728 51.3538 5.136C52.1378 4.544 53.0658 4.248 54.1378 4.248C55.1618 4.248 56.0658 4.504 56.8498 5.016C57.6338 5.528 58.2498 6.304 58.6978 7.344C59.1618 8.368 59.3938 9.656 59.3938 11.208C59.3938 13.72 58.9218 15.576 57.9778 16.776C57.0498 17.96 55.7938 18.552 54.2098 18.552C53.1378 18.552 52.2898 18.312 51.6658 17.832C51.0578 17.352 50.6338 16.768 50.3938 16.08L50.6818 15.936C50.8098 16.832 50.9138 17.72 50.9938 18.6C51.0898 19.464 51.1378 20.224 51.1378 20.88C51.1378 21.696 50.9298 22.384 50.5138 22.944C50.0978 23.52 49.4418 23.808 48.5458 23.808C47.7138 23.808 47.0738 23.536 46.6258 22.992C46.1938 22.464 45.8978 21.736 45.7378 20.808C45.6418 20.152 45.5458 19.32 45.4498 18.312C45.3538 17.288 45.2738 16.184 45.2098 15C45.1618 13.816 45.1378 12.648 45.1378 11.496C45.1378 10.36 45.1778 9.296 45.2578 8.304C45.3538 7.296 45.4658 6.48 45.5938 5.856C45.7378 5.264 45.9938 4.824 46.3618 4.536C46.7458 4.248 47.2098 4.104 47.7538 4.104ZM52.2658 8.28C51.6738 8.28 51.1938 8.576 50.8258 9.168C50.4738 9.76 50.2978 10.528 50.2978 11.472C50.2978 12.448 50.4738 13.176 50.8258 13.656C51.1778 14.136 51.6418 14.376 52.2178 14.376C52.9218 14.376 53.4178 14.104 53.7058 13.56C54.0098 13.016 54.1618 12.312 54.1618 11.448C54.1618 10.36 53.9698 9.56 53.5858 9.048C53.2178 8.536 52.7778 8.28 52.2658 8.28Z" fill="#0192F5"/>
<path d="M68.1276 19.176C66.1596 19.176 64.5916 18.912 63.4236 18.384C62.2556 17.856 61.4076 17.096 60.8796 16.104C60.3676 15.112 60.1116 13.928 60.1116 12.552C60.1116 10.808 60.4716 9.328 61.1916 8.112C61.9276 6.88 62.9276 5.936 64.1916 5.28C65.4716 4.624 66.9196 4.296 68.5356 4.296C70.4556 4.296 71.8636 4.68 72.7596 5.448C73.6556 6.2 74.1036 7.192 74.1036 8.424C74.1036 9.4 73.8316 10.248 73.2876 10.968C72.7596 11.688 72.0156 12.24 71.0556 12.624C70.1116 13.008 69.0156 13.2 67.7676 13.2C67.1916 13.2 66.6316 13.16 66.0876 13.08C65.5436 13 65.0556 12.896 64.6236 12.768L65.1996 11.424C65.1516 11.808 65.1276 12.192 65.1276 12.576C65.1276 13.264 65.3756 13.752 65.8716 14.04C66.3836 14.328 67.0876 14.472 67.9836 14.472C68.8476 14.472 69.5836 14.384 70.1916 14.208C70.7996 14.016 71.3356 13.832 71.7996 13.656C72.2636 13.464 72.7036 13.368 73.1196 13.368C73.4076 13.368 73.7036 13.44 74.0076 13.584C74.3116 13.728 74.5676 13.952 74.7756 14.256C74.9836 14.56 75.0876 14.968 75.0876 15.48C75.0876 16.184 74.8236 16.816 74.2956 17.376C73.7676 17.936 72.9836 18.376 71.9436 18.696C70.9196 19.016 69.6476 19.176 68.1276 19.176ZM66.7356 10.8C67.5036 10.8 68.1676 10.616 68.7276 10.248C69.2876 9.864 69.5676 9.4 69.5676 8.856C69.5676 8.504 69.4396 8.216 69.1836 7.992C68.9276 7.768 68.5756 7.656 68.1276 7.656C67.6316 7.656 67.1596 7.752 66.7116 7.944C66.2796 8.136 65.9276 8.384 65.6556 8.688C65.3836 8.992 65.2476 9.328 65.2476 9.696C65.2476 10.048 65.3756 10.32 65.6316 10.512C65.9036 10.704 66.2716 10.8 66.7356 10.8Z" fill="#0192F5"/>
<path d="M79.7809 4.536H79.5409C79.4609 3.832 79.4849 3.168 79.6129 2.544C79.7409 1.904 80.0129 1.392 80.4289 1.008C80.8449 0.607999 81.4449 0.407999 82.2289 0.407999C83.0289 0.407999 83.6129 0.591999 83.9809 0.959999C84.3489 1.328 84.5329 1.84 84.5329 2.496C84.5329 3.328 84.3409 4.04 83.9569 4.632L83.7649 4.584C84.3249 4.28 84.9409 4.128 85.6129 4.128C86.4449 4.128 87.1089 4.328 87.6049 4.728C88.1169 5.112 88.3729 5.776 88.3729 6.72C88.3729 7.6 88.0849 8.272 87.5089 8.736C86.9329 9.184 86.2129 9.408 85.3489 9.408C85.0449 9.408 84.7169 9.392 84.3649 9.36C84.0289 9.312 83.7009 9.24 83.3809 9.144L83.5009 8.88C83.7089 9.36 83.9089 9.904 84.1009 10.512C84.2929 11.104 84.4609 11.728 84.6049 12.384C84.7649 13.024 84.8849 13.656 84.9649 14.28C85.0609 14.888 85.1089 15.432 85.1089 15.912C85.1089 16.936 84.8529 17.744 84.3409 18.336C83.8449 18.928 83.0769 19.224 82.0369 19.224C81.3969 19.224 80.8609 19.112 80.4289 18.888C79.9969 18.664 79.6529 18.352 79.3969 17.952C79.1409 17.552 78.9569 17.08 78.8449 16.536C78.7329 15.976 78.6769 15.376 78.6769 14.736C78.6769 14.192 78.7169 13.584 78.7969 12.912C78.8929 12.224 79.0289 11.512 79.2049 10.776C79.3809 10.04 79.5889 9.336 79.8289 8.664L80.0689 9.264C79.5569 9.68 78.9089 9.888 78.1249 9.888C77.2449 9.888 76.5569 9.672 76.0609 9.24C75.5649 8.792 75.3169 8.112 75.3169 7.2C75.3169 6.256 75.5809 5.528 76.1089 5.016C76.6529 4.504 77.3809 4.248 78.2929 4.248C78.5809 4.248 78.8529 4.28 79.1089 4.344C79.3649 4.392 79.5889 4.456 79.7809 4.536Z" fill="#0192F5"/>
<path d="M100.875 1.344C102.027 1.344 102.987 1.4 103.755 1.512C104.539 1.608 105.195 1.76 105.723 1.968C106.523 2.304 107.059 2.752 107.331 3.312C107.619 3.856 107.763 4.48 107.763 5.184C107.763 6.128 107.507 6.896 106.995 7.488C106.499 8.08 105.747 8.376 104.739 8.376C104.307 8.376 103.851 8.336 103.371 8.256C102.891 8.176 102.395 8.056 101.883 7.896V7.224C102.203 7.816 102.483 8.48 102.723 9.216C102.979 9.952 103.187 10.696 103.347 11.448C103.523 12.184 103.651 12.888 103.731 13.56C103.827 14.216 103.875 14.776 103.875 15.24C103.875 16.488 103.603 17.456 103.059 18.144C102.515 18.816 101.611 19.152 100.347 19.152C99.2266 19.152 98.3786 18.856 97.8026 18.264C97.2266 17.656 96.9386 16.744 96.9386 15.528C96.9386 14.952 97.0026 14.304 97.1306 13.584C97.2586 12.864 97.4346 12.12 97.6586 11.352C97.8826 10.584 98.1386 9.848 98.4266 9.144C98.7146 8.44 99.0106 7.824 99.3146 7.296L99.4106 7.896C99.1546 7.992 98.8426 8.088 98.4746 8.184C98.1226 8.264 97.7626 8.336 97.3946 8.4C97.0426 8.448 96.7226 8.472 96.4346 8.472C95.3306 8.472 94.5466 8.232 94.0826 7.752C93.6346 7.256 93.4106 6.568 93.4106 5.688C93.4106 4.936 93.5786 4.264 93.9146 3.672C94.2666 3.08 94.8186 2.592 95.5706 2.208C96.1626 1.904 96.8826 1.688 97.7306 1.56C98.5786 1.416 99.6266 1.344 100.875 1.344Z" fill="#0192F5"/>
<path d="M119.658 19.224C118.73 19.224 118.114 19.016 117.81 18.6C117.522 18.168 117.386 17.488 117.402 16.56L117.81 16.68C116.946 18.424 115.29 19.296 112.842 19.296C111.722 19.296 110.794 19.104 110.058 18.72C109.338 18.32 108.794 17.8 108.426 17.16C108.074 16.52 107.898 15.808 107.898 15.024C107.898 13.696 108.386 12.648 109.362 11.88C110.354 11.096 111.666 10.704 113.298 10.704C114.29 10.704 115.162 10.856 115.914 11.16C116.666 11.464 117.298 11.888 117.81 12.432L117.042 12.384C117.042 11.136 116.81 10.248 116.346 9.72C115.882 9.192 115.202 8.928 114.306 8.928C113.922 8.928 113.506 8.992 113.058 9.12C112.626 9.232 112.178 9.352 111.714 9.48C111.25 9.592 110.778 9.648 110.298 9.648C109.658 9.648 109.154 9.48 108.786 9.144C108.434 8.792 108.258 8.344 108.258 7.8C108.258 7.064 108.57 6.408 109.194 5.832C109.818 5.256 110.642 4.8 111.666 4.464C112.706 4.128 113.826 3.96 115.026 3.96C116.594 3.96 117.954 4.256 119.106 4.848C120.258 5.424 121.066 6.32 121.53 7.536C121.882 8.416 122.13 9.408 122.274 10.512C122.434 11.616 122.514 12.792 122.514 14.04C122.514 15.4 122.418 16.456 122.226 17.208C122.034 17.96 121.722 18.488 121.29 18.792C120.874 19.08 120.33 19.224 119.658 19.224ZM114.954 15.72C115.274 15.72 115.594 15.672 115.914 15.576C116.25 15.464 116.53 15.312 116.754 15.12C116.978 14.912 117.09 14.664 117.09 14.376C117.09 14.088 117.002 13.856 116.826 13.68C116.65 13.504 116.41 13.376 116.106 13.296C115.818 13.216 115.506 13.176 115.17 13.176C114.562 13.176 114.074 13.304 113.706 13.56C113.338 13.816 113.154 14.136 113.154 14.52C113.154 14.872 113.314 15.16 113.634 15.384C113.97 15.608 114.41 15.72 114.954 15.72Z" fill="#0192F5"/>
<path d="M127.042 19.032C126.306 19.032 125.714 18.896 125.266 18.624C124.818 18.336 124.466 17.848 124.21 17.16C123.954 16.488 123.762 15.552 123.634 14.352C123.522 13.136 123.466 11.672 123.466 9.96C123.466 8.936 123.506 7.896 123.586 6.84C123.682 5.784 123.802 4.824 123.946 3.96C124.106 3.08 124.274 2.424 124.45 1.992C124.754 1.272 125.09 0.76 125.458 0.456C125.826 0.152 126.282 0 126.826 0C127.402 0 127.882 0.16 128.266 0.48C128.65 0.783999 128.93 1.296 129.106 2.016C129.234 2.544 129.338 3.176 129.418 3.912C129.498 4.648 129.538 5.424 129.538 6.24C129.538 7.152 129.482 8.12 129.37 9.144C129.258 10.152 129.106 11.144 128.914 12.12C128.738 13.08 128.522 13.968 128.266 14.784L126.082 15C126.546 14.648 127.058 14.376 127.618 14.184C128.194 13.992 128.73 13.896 129.226 13.896C129.882 13.896 130.386 14.064 130.738 14.4C131.106 14.72 131.29 15.224 131.29 15.912C131.29 16.488 131.106 17.016 130.738 17.496C130.37 17.96 129.866 18.336 129.226 18.624C128.602 18.896 127.874 19.032 127.042 19.032Z" fill="#0192F5"/>
<path d="M139.776 19.176C137.808 19.176 136.24 18.912 135.072 18.384C133.904 17.856 133.056 17.096 132.528 16.104C132.016 15.112 131.76 13.928 131.76 12.552C131.76 10.808 132.12 9.328 132.84 8.112C133.576 6.88 134.576 5.936 135.84 5.28C137.12 4.624 138.568 4.296 140.184 4.296C142.104 4.296 143.512 4.68 144.408 5.448C145.304 6.2 145.752 7.192 145.752 8.424C145.752 9.4 145.48 10.248 144.936 10.968C144.408 11.688 143.664 12.24 142.704 12.624C141.76 13.008 140.664 13.2 139.416 13.2C138.84 13.2 138.28 13.16 137.736 13.08C137.192 13 136.704 12.896 136.272 12.768L136.848 11.424C136.8 11.808 136.776 12.192 136.776 12.576C136.776 13.264 137.024 13.752 137.52 14.04C138.032 14.328 138.736 14.472 139.632 14.472C140.496 14.472 141.232 14.384 141.84 14.208C142.448 14.016 142.984 13.832 143.448 13.656C143.912 13.464 144.352 13.368 144.768 13.368C145.056 13.368 145.352 13.44 145.656 13.584C145.96 13.728 146.216 13.952 146.424 14.256C146.632 14.56 146.736 14.968 146.736 15.48C146.736 16.184 146.472 16.816 145.944 17.376C145.416 17.936 144.632 18.376 143.592 18.696C142.568 19.016 141.296 19.176 139.776 19.176ZM138.384 10.8C139.152 10.8 139.816 10.616 140.376 10.248C140.936 9.864 141.216 9.4 141.216 8.856C141.216 8.504 141.088 8.216 140.832 7.992C140.576 7.768 140.224 7.656 139.776 7.656C139.28 7.656 138.808 7.752 138.36 7.944C137.928 8.136 137.576 8.384 137.304 8.688C137.032 8.992 136.896 9.328 136.896 9.696C136.896 10.048 137.024 10.32 137.28 10.512C137.552 10.704 137.92 10.8 138.384 10.8Z" fill="#0192F5"/>
</svg>
